# xmcd
#
# Track frame offsets: 
#        150
#        17514
#        34480
#        51063
#        75544
#        88859
#        102902
#        123090
#        143637
#        162647
#        183273
#        203273
#        221860
#        239627
#        254675
#
# Disc length: 3694 seconds
#
# Revision: 5
# Processed by: cddbd v1.5.2PL0 Copyright (c) Steve Scherf et al.
# Submitted via: ExactAudioCopy v1.3
#
DISCID=cf0e6c0f
DTITLE=Lynyrd Skynyrd - Last Of A Dyin' Breed (Fanpack)
DYEAR=2012
DGENRE=Rock
TTITLE0=Last Of A Dyin Breed
TTITLE1=One Day At A Time
TTITLE2=Homegrown
TTITLE3=Ready To Fly
TTITLE4=Mississippi Blood
TTITLE5=Good Teacher
TTITLE6=Something To Live
TTITLE7=Life's Twisted
TTITLE8=Nothing Comes Easy
TTITLE9=Honey Hole
TTITLE10=Start Livin Life Again
TTITLE11=Bonus: Poor Man’s Dream
TTITLE12=Bonus: Do It Up Right
TTITLE13=Bonus: Skynyrd Nation (Live)
TTITLE14=Bonus: Gimme Three Steps (Live)
EXTD=
EXTT0=
EXTT1=
EXTT2=
EXTT3=
EXTT4=
EXTT5=
EXTT6=
EXTT7=
EXTT8=
EXTT9=
EXTT10=
EXTT11=
EXTT12=
EXTT13=
EXTT14=
PLAYORDER=
